HIERARCHY
ROOT Hips
{
	OFFSET 0.000000 103.266502 0.000000
	CHANNELS 6 Xposition Yposition Zposition Xrotation Yrotation Zrotation 
	JOINT Spine
	{
		OFFSET -0.002400 12.777504 0.315300
		CHANNELS 3 Xrotation Yrotation Zrotation
		JOINT Spine1
		{
			OFFSET -0.002067 5.816869 0.032633
			CHANNELS 3 Xrotation Yrotation Zrotation
			JOINT Spine1_split
			{
				OFFSET -0.002067 5.816869 0.032633
				CHANNELS 3 Xrotation Yrotation Zrotation
				JOINT Spine2
				{
					OFFSET -0.002067 5.816869 0.032633
					CHANNELS 3 Xrotation Yrotation Zrotation
					JOINT Neck
					{
						OFFSET -0.003700 21.199493 -0.826900
						CHANNELS 3 Xrotation Yrotation Zrotation
						JOINT Head
						{
							OFFSET 0.000000 20.442200 4.834800
							CHANNELS 3 Xrotation Yrotation Zrotation
							JOINT HeadTop_End
							{
								OFFSET 0.000000 34.668396 4.968400
								CHANNELS 3 Xrotation Yrotation Zrotation
								End Site
								{
									OFFSET 0.000000 0.000000 0.000000
								}
							}
						}
					}
					JOINT LeftShoulder
					{
						OFFSET 3.288150 8.794197 -1.372250
						CHANNELS 3 Xrotation Yrotation Zrotation
						JOINT LeftShoulder_split
						{
							OFFSET 3.288150 8.794197 -1.372250
							CHANNELS 3 Xrotation Yrotation Zrotation
							JOINT LeftArm
							{
								OFFSET 11.953299 -2.279007 -0.146200
								CHANNELS 3 Xrotation Yrotation Zrotation
								JOINT LeftForeArm
								{
									OFFSET 18.448900 0.000000 0.000000
									CHANNELS 3 Xrotation Yrotation Zrotation
									JOINT LeftHand
									{
										OFFSET 29.527798 0.000000 0.000000
										CHANNELS 3 Xrotation Yrotation Zrotation
										JOINT LeftHandThumb1
										{
											OFFSET 10.739754 -2.369614 9.225399
											CHANNELS 3 Xrotation Yrotation Zrotation
											JOINT LeftHandThumb2
											{
												OFFSET 4.926170 -2.844131 2.844125
												CHANNELS 3 Xrotation Yrotation Zrotation
												JOINT LeftHandThumb3
												{
													OFFSET 4.614891 -2.664413 2.664409
													CHANNELS 3 Xrotation Yrotation Zrotation
													JOINT LeftHandThumb4
													{
														OFFSET 4.432465 -2.559082 2.559083
														CHANNELS 3 Xrotation Yrotation Zrotation
														End Site
														{
															OFFSET 0.000000 0.000000 0.000000
														}
													}
												}
											}
										}
										JOINT LeftHandIndex1
										{
											OFFSET 26.467674 0.187653 6.405298
											CHANNELS 3 Xrotation Yrotation Zrotation
											JOINT LeftHandIndex2
											{
												OFFSET 8.792900 0.000000 0.000000
												CHANNELS 3 Xrotation Yrotation Zrotation
												JOINT LeftHandIndex3
												{
													OFFSET 10.075203 0.000000 0.000000
													CHANNELS 3 Xrotation Yrotation Zrotation
													End Site
													{
														OFFSET 0.000000 0.000000 0.000000
													}
												}
											}
										}
										JOINT LeftHandMiddle1
										{
											OFFSET 25.764404 0.000000 0.000000
											CHANNELS 3 Xrotation Yrotation Zrotation
											JOINT LeftHandMiddle2
											{
												OFFSET 9.393974 0.000000 0.000000
												CHANNELS 3 Xrotation Yrotation Zrotation
												JOINT LeftHandMiddle3
												{
													OFFSET 10.771950 0.000000 0.000000
													CHANNELS 3 Xrotation Yrotation Zrotation
													End Site
													{
														OFFSET 0.000000 0.000000 0.000000
													}
												}
											}
										}
										JOINT LeftHandRing1
										{
											OFFSET 24.660927 0.144547 -6.225808
											CHANNELS 3 Xrotation Yrotation Zrotation
											JOINT LeftHandRing2
											{
												OFFSET 9.393799 0.000000 0.000000
												CHANNELS 3 Xrotation Yrotation Zrotation
												JOINT LeftHandRing3
												{
													OFFSET 9.928497 0.000000 0.000000
													CHANNELS 3 Xrotation Yrotation Zrotation
													End Site
													{
														OFFSET 0.000000 0.000000 0.000000
													}
												}
											}
										}
										JOINT LeftHandPinky1
										{
											OFFSET 23.655350 0.125290 -12.815412
											CHANNELS 3 Xrotation Yrotation Zrotation
											JOINT LeftHandPinky2
											{
												OFFSET 8.425102 0.000000 0.000000
												CHANNELS 3 Xrotation Yrotation Zrotation
												JOINT LeftHandPinky3
												{
													OFFSET 8.147003 0.000000 0.000000
													CHANNELS 3 Xrotation Yrotation Zrotation
													End Site
													{
														OFFSET 0.000000 0.000000 0.000000
													}
												}
											}
										}
									}
								}
							}
						}
					}
					JOINT RightShoulder
					{
						OFFSET -3.249400 8.794197 -1.372250
						CHANNELS 3 Xrotation Yrotation Zrotation
						JOINT RightShoulder_split
						{
							OFFSET -3.249400 8.794197 -1.372250
							CHANNELS 3 Xrotation Yrotation Zrotation
							JOINT RightArm
							{
								OFFSET -11.953299 -2.279007 -0.146200
								CHANNELS 3 Xrotation Yrotation Zrotation
								JOINT RightForeArm
								{
									OFFSET -18.448900 0.000000 0.000000
									CHANNELS 3 Xrotation Yrotation Zrotation
									JOINT RightHand
									{
										OFFSET -29.527802 0.000000 0.000000
										CHANNELS 3 Xrotation Yrotation Zrotation
										JOINT RightHandThumb1
										{
											OFFSET -10.739754 -2.369614 9.225399
											CHANNELS 3 Xrotation Yrotation Zrotation
											JOINT RightHandThumb2
											{
												OFFSET -4.926170 -2.844131 2.844125
												CHANNELS 3 Xrotation Yrotation Zrotation
												JOINT RightHandThumb3
												{
													OFFSET -4.614891 -2.664413 2.664409
													CHANNELS 3 Xrotation Yrotation Zrotation
													JOINT RightHandThumb4
													{
														OFFSET -4.432465 -2.559082 2.559083
														CHANNELS 3 Xrotation Yrotation Zrotation
														End Site
														{
															OFFSET 0.000000 0.000000 0.000000
														}
													}
												}
											}
										}
										JOINT RightHandIndex1
										{
											OFFSET -26.467674 0.187653 6.405298
											CHANNELS 3 Xrotation Yrotation Zrotation
											JOINT RightHandIndex2
											{
												OFFSET -8.792900 0.000000 0.000000
												CHANNELS 3 Xrotation Yrotation Zrotation
												JOINT RightHandIndex3
												{
													OFFSET -10.075203 0.000000 0.000000
													CHANNELS 3 Xrotation Yrotation Zrotation
													End Site
													{
														OFFSET 0.000000 0.000000 0.000000
													}
												}
											}
										}
										JOINT RightHandMiddle1
										{
											OFFSET -25.764404 0.000000 0.000000
											CHANNELS 3 Xrotation Yrotation Zrotation
											JOINT RightHandMiddle2
											{
												OFFSET -9.393974 0.000000 0.000000
												CHANNELS 3 Xrotation Yrotation Zrotation
												JOINT RightHandMiddle3
												{
													OFFSET -10.771950 0.000000 0.000000
													CHANNELS 3 Xrotation Yrotation Zrotation
													End Site
													{
														OFFSET 0.000000 0.000000 0.000000
													}
												}
											}
										}
										JOINT RightHandRing1
										{
											OFFSET -24.660927 0.144547 -6.225808
											CHANNELS 3 Xrotation Yrotation Zrotation
											JOINT RightHandRing2
											{
												OFFSET -9.393799 0.000000 0.000000
												CHANNELS 3 Xrotation Yrotation Zrotation
												JOINT RightHandRing3
												{
													OFFSET -9.928497 0.000000 0.000000
													CHANNELS 3 Xrotation Yrotation Zrotation
													End Site
													{
														OFFSET 0.000000 0.000000 0.000000
													}
												}
											}
										}
										JOINT RightHandPinky1
										{
											OFFSET -23.655350 0.125290 -12.815412
											CHANNELS 3 Xrotation Yrotation Zrotation
											JOINT RightHandPinky2
											{
												OFFSET -8.425102 0.000000 0.000000
												CHANNELS 3 Xrotation Yrotation Zrotation
												JOINT RightHandPinky3
												{
													OFFSET -8.147003 0.000000 0.000000
													CHANNELS 3 Xrotation Yrotation Zrotation
													End Site
													{
														OFFSET 0.000000 0.000000 0.000000
													}
												}
											}
										}
									}
								}
							}
						}
					}
				}
			}
		}
	}
	JOINT LeftUpLeg
	{
		OFFSET 11.394100 -6.187798 -0.413800
		CHANNELS 3 Xrotation Yrotation Zrotation
		JOINT LeftLeg
		{
			OFFSET 0.430247 -32.302673 3.732800
			CHANNELS 3 Xrotation Yrotation Zrotation
			JOINT LeftFoot
			{
				OFFSET -0.430247 -48.264931 -6.423300
				CHANNELS 3 Xrotation Yrotation Zrotation
				JOINT LeftToeBase
				{
					OFFSET 4.230900 -16.068199 23.438400
					CHANNELS 3 Xrotation Yrotation Zrotation
					JOINT LeftToe_End
					{
						OFFSET 4.510700 0.695400 19.974600
						CHANNELS 3 Xrotation Yrotation Zrotation
						End Site
						{
							OFFSET 0.000000 0.000000 0.000000
						}
					}
				}
			}
		}
	}
	JOINT RightUpLeg
	{
		OFFSET -11.333700 -6.187798 -0.413800
		CHANNELS 3 Xrotation Yrotation Zrotation
		JOINT RightLeg
		{
			OFFSET -0.430392 -32.302628 3.733000
			CHANNELS 3 Xrotation Yrotation Zrotation
			JOINT RightFoot
			{
				OFFSET 0.430392 -48.264973 -6.423500
				CHANNELS 3 Xrotation Yrotation Zrotation
				JOINT RightToeBase
				{
					OFFSET -4.230900 -16.068199 23.438400
					CHANNELS 3 Xrotation Yrotation Zrotation
					JOINT RightToe_End
					{
						OFFSET -4.510700 0.695400 19.974600
						CHANNELS 3 Xrotation Yrotation Zrotation
						End Site
						{
							OFFSET 0.000000 0.000000 0.000000
						}
					}
				}
			}
		}
	}
}
MOTION
Frames: 4
Frame Time: 0.016667
0.147836 99.671043 0.458947 1.940060 1.900744 -0.967182 6.191230 -1.156905 0.843406 2.498165 -2.419468 1.232352 0.000000 0.000000 0.000000 2.471487 -2.375263 1.342052 -0.476783 2.129174 -0.237604 -3.192700 4.531153 -1.881903 -0.000001 0.000000 -0.000000 0.352374 -9.169220 -14.380745 0.000000 0.000000 0.000000 9.011951 -24.442286 -57.554603 -0.000003 -11.061374 0.000003 3.271997 3.566776 -10.594332 5.264578 3.579083 10.848968 6.474972 8.367012 6.368045 2.011415 -7.323825 21.364147 0.000002 0.000000 -0.000000 -2.233900 -4.155360 -17.702594 0.202674 1.529122 -15.099460 0.000002 -0.000001 0.000001 0.434919 4.486709 -26.650225 0.126203 1.210716 -11.901601 0.000002 0.000000 0.000002 1.633483 6.797654 -27.448963 0.330724 1.942275 -19.325021 0.000001 -0.000001 -0.000002 3.038394 8.521943 -34.072716 0.278521 1.786557 -17.720738 -0.000004 -0.000002 -0.000000 0.552465 4.135210 15.717225 0.000000 0.000000 0.000000 3.061864 28.096181 49.279859 0.000000 23.795805 0.000014 -1.370122 0.937413 5.904094 12.604603 -3.092112 -3.819385 4.958741 -19.016358 -8.084343 -16.136266 -1.568451 -12.126144 0.000002 -0.000001 -0.000001 -2.604814 4.000960 20.793312 0.395169 -1.879122 23.750094 0.000001 -0.000001 -0.000001 -1.114238 -0.327546 22.216065 0.858155 -2.695816 35.310084 -0.000000 0.000000 0.000001 -0.268991 -2.585347 24.354283 1.505977 -3.430902 47.387460 0.000000 -0.000001 -0.000001 -0.053538 -3.321025 29.341799 0.569532 -2.233599 28.606367 -0.000002 -0.000001 0.000002 -36.485409 8.221078 6.112461 55.457861 -4.070055 -0.471653 7.536882 -0.291516 1.189003 -28.498080 -0.548885 1.483700 -0.000000 -0.000000 -0.000000 -17.253275 -7.809241 2.826540 23.667452 2.511342 -4.205974 -8.997025 0.069383 -0.084036 -4.971788 0.000001 -0.000000 0.000001 -0.000000 -0.000000 
0.149909 99.670746 0.461436 1.939736 1.901137 -0.966815 6.191653 -1.155359 0.843226 2.498233 -2.417830 1.232011 0.000000 0.000000 0.000000 2.471639 -2.373642 1.341658 -0.476554 2.128852 -0.237604 -3.192826 4.526923 -1.879946 -0.000000 -0.000000 -0.000000 0.352424 -9.170002 -14.382085 0.000000 0.000000 0.000000 9.010352 -24.438422 -57.554384 0.000007 -11.063227 -0.000017 3.257409 3.554000 -10.593109 5.263823 3.578393 10.848681 6.474950 8.367289 6.367680 2.010754 -7.323450 21.363500 0.000000 0.000001 0.000001 -2.233614 -4.154925 -17.701608 0.202647 1.529038 -15.098393 0.000002 0.000001 0.000001 0.434876 4.486595 -26.648618 0.126191 1.210623 -11.900808 0.000002 0.000002 0.000000 1.633276 6.797400 -27.447281 0.330678 1.942153 -19.323700 -0.000000 -0.000003 -0.000001 3.037997 8.521592 -34.070578 0.278492 1.786464 -17.719522 0.000002 -0.000000 -0.000005 0.551999 4.136470 15.717541 0.000000 0.000000 0.000000 3.065234 28.095293 49.277916 -0.000004 23.806293 0.000001 -1.366989 0.936654 5.900781 12.604082 -3.090586 -3.818887 4.958336 -19.014770 -8.084015 -16.136542 -1.566832 -12.125789 0.000001 -0.000001 -0.000003 -2.604886 4.001880 20.791728 0.395115 -1.879002 23.748349 -0.000003 -0.000001 -0.000004 -1.114365 -0.326929 22.214453 0.858067 -2.695690 35.308403 -0.000002 -0.000002 -0.000003 -0.268914 -2.585372 24.352589 1.505874 -3.430803 47.385762 -0.000002 -0.000003 0.000001 -0.052959 -3.321976 29.340061 0.569470 -2.233478 28.604694 -0.000002 0.000001 0.000003 -36.485453 8.219073 6.114925 55.455832 -4.068047 -0.471305 7.536215 -0.290306 1.185765 -28.496065 -0.547956 1.481239 -0.000000 0.000000 -0.000000 -17.252732 -7.808933 2.824406 23.669590 2.510776 -4.205645 -9.000037 0.070565 -0.082597 -4.971332 0.000000 0.000000 -0.000000 -0.000000 -0.000000 
1.172996 99.522507 1.660803 1.781191 2.093354 -0.779024 6.398312 -0.396577 0.748412 2.528580 -1.613456 1.064342 0.000000 0.000000 0.000000 2.545426 -1.578220 1.147882 -0.365333 1.971525 -0.237604 -3.183211 2.474958 -1.431030 0.000000 -0.000000 -0.000000 0.372027 -9.555645 -15.041967 0.000000 0.000000 0.000000 8.216917 -22.540968 -57.446727 -0.000001 -11.975301 -0.000002 3.731467 3.720157 -10.301909 4.891368 3.235531 10.703796 6.454759 8.503268 6.197293 1.690553 -7.139157 21.054517 0.000001 0.000000 0.000003 -2.093283 -3.936375 -17.208610 0.189385 1.479053 -14.593611 0.000000 -0.000001 0.000001 0.414368 4.427928 -25.861101 0.117923 1.170728 -11.503004 0.000001 0.000000 0.000003 1.539064 6.674524 -26.628321 0.309131 1.879607 -18.677436 0.000001 -0.000001 -0.000002 2.853486 8.358692 -33.022851 0.260313 1.728586 -17.127022 -0.000002 -0.000001 -0.000002 0.321544 4.755068 15.877627 0.000000 0.000000 0.000000 5.691781 26.887837 47.980740 0.000015 30.206600 -0.000032 0.161393 0.516861 4.276210 12.348111 -2.339949 -3.584506 4.747139 -18.240205 -7.943253 -16.268375 -0.771228 -11.945357 0.000001 -0.000001 -0.000003 -2.640435 4.449045 20.018077 0.367980 -1.816106 22.906665 -0.000003 -0.000002 -0.000001 -1.172894 -0.021099 21.413895 0.819468 -2.640393 34.478983 -0.000001 -0.000003 -0.000003 -0.236774 -2.596229 23.523566 1.456692 -3.384975 46.558193 0.000001 -0.000000 -0.000000 0.223294 -3.787752 28.484138 0.537727 -2.174288 27.779090 0.000004 0.000001 0.000003 -36.560036 7.205908 7.374088 54.490617 -3.128779 -0.304066 7.349496 0.315050 -0.639894 -27.473594 -0.177549 0.491763 -0.000000 0.000000 0.000000 -16.771610 -7.647764 1.767149 24.379016 2.246656 -4.007797 -10.044375 0.650272 0.627045 -4.747448 -0.000000 0.000000 0.000000 0.000000 0.000000 
2.291841 99.372192 2.887935 1.665045 2.252723 -0.567872 6.604437 0.345297 0.630363 2.561886 -0.802063 0.887917 0.000000 0.000000 0.000000 2.621667 -0.776054 0.944273 -0.268467 1.815120 -0.237641 -3.233344 0.353598 -1.007019 0.000000 -0.000000 0.000000 0.371285 -9.985387 -15.641499 0.000000 0.000000 0.000000 7.405624 -20.584761 -57.407173 -0.000001 -12.913642 -0.000023 4.214060 3.996377 -10.057961 4.508195 2.883748 10.550097 6.434232 8.643684 6.022203 1.361582 -6.945972 20.738882 -0.000005 0.000000 0.000001 -1.948704 -3.694174 -16.699978 0.176223 1.427534 -14.074314 0.000001 -0.000001 0.000001 0.393833 4.367404 -25.050976 0.109702 1.129615 -11.093765 -0.000001 0.000003 0.000001 1.442351 6.540931 -25.786638 0.287703 1.815029 -18.012631 -0.000003 -0.000003 0.000001 2.655557 8.164948 -31.946851 0.242241 1.668840 -16.517487 -0.000001 -0.000001 -0.000001 0.086860 5.408575 15.971883 0.000000 0.000000 0.000000 7.876284 25.924898 46.850071 0.000004 35.801120 0.000008 1.774337 0.205093 2.579191 12.069516 -1.522693 -3.323953 4.515094 -17.396355 -7.788268 -16.417195 0.094991 -11.746306 -0.000003 0.000000 0.000000 -2.666696 4.938883 19.174981 0.339472 -1.747103 21.989234 -0.000000 0.000001 -0.000001 -1.228171 0.314526 20.541884 0.778303 -2.579496 33.574973 0.000005 0.000000 0.000000 -0.203308 -2.609189 22.619792 1.403821 -3.334195 45.656239 0.000003 0.000000 0.000001 0.507727 -4.304784 27.552433 0.504091 -2.109259 26.879226 -0.000002 0.000001 -0.000001 -36.385944 6.123523 8.861123 53.075501 -1.663127 -0.101053 6.961570 0.958496 -3.502091 -25.650796 -0.012140 0.036085 0.000000 -0.000000 0.000000 -16.242542 -7.485438 0.601753 24.943170 2.014840 -3.773642 -11.012287 1.275640 1.400735 -4.497861 -0.000001 -0.000000 -0.000000 -0.000000 0.000000 
